<svg xmlns="http://www.w3.org/2000/svg" xmlns:svg="http://www.w3.org/2000/svg" xmlns:xlink="http://www.w3.org/1999/xlink" id="svg488" width="273.016" height="202.23" version="1.1" viewBox="0 0 232.064 171.896"><metadata id="metadata492"/><defs id="defs4" stroke-linecap="butt" stroke-linejoin="round"><style id="style2" type="text/css">*{stroke-linecap:butt;stroke-linejoin:round}</style></defs><g id="figure_1" stroke-linecap="butt" stroke-linejoin="round" transform="translate(9.0666668,9.0666668)"><g id="patch_1" stroke-linecap="butt" stroke-linejoin="round"><path id="path6" fill="#fff" stroke-linecap="butt" stroke-linejoin="round" d="M 0,153.7624 H 213.93021 V 0 H 0 Z"/></g><g id="axes_1" stroke-linecap="butt" stroke-linejoin="round"><g id="patch_2" stroke-linecap="butt" stroke-linejoin="round"><path id="path9" fill="#fff" stroke-linecap="butt" stroke-linejoin="round" d="M 30.070211,130.7464 H 208.63021 V 5.3 H 30.070211 Z"/></g><g id="matplotlib.axis_1" stroke-linecap="butt" stroke-linejoin="round"><g id="xtick_1" stroke-linecap="butt" stroke-linejoin="round"><g id="line2d_1" stroke-linecap="butt" stroke-linejoin="round"><path id="path12" fill="none" stroke="#000" stroke-dasharray=".4 3.2" stroke-dashoffset="0" stroke-linecap="butt" stroke-linejoin="round" stroke-width=".2" d="M 56.222939,130.7464 V 5.3" clip-path="url(#p840df2bde8)"/></g><g id="line2d_2" stroke-linecap="butt" stroke-linejoin="round"><defs id="defs16"><path id="md97f4e96d1" stroke="#000" stroke-linecap="butt" stroke-linejoin="round" stroke-width=".5" d="M 0,0 V 3.5"/></defs><g id="g20" stroke-linecap="butt" stroke-linejoin="round"><use id="use18" width="100%" height="100%" x="56.223" y="130.746" stroke="#000" stroke-linecap="butt" stroke-linejoin="round" stroke-width=".5" xlink:href="#md97f4e96d1"/></g></g><g id="text_1" stroke-linecap="butt" stroke-linejoin="round"><defs id="defs24"><path id="DejaVuSans-32" stroke-linecap="butt" stroke-linejoin="round" d="M 19.1875,8.296875 H 53.609375 V 0 H 7.328125 v 8.296875 q 5.609375,5.8125 15.296875,15.59375 9.703125,9.796875 12.1875,12.640625 4.734375,5.3125 6.609375,9 1.890625,3.6875 1.890625,7.25 0,5.8125 -4.078125,9.46875 -4.078125,3.671875 -10.625,3.671875 -4.640625,0 -9.796875,-1.609375 -5.140625,-1.609375 -11,-4.890625 v 9.96875 Q 13.765625,71.78125 18.9375,73 q 5.1875,1.21875 9.484375,1.21875 11.328125,0 18.0625,-5.671875 6.734375,-5.65625 6.734375,-15.125 0,-4.5 -1.6875,-8.53125 Q 49.859375,40.875 45.40625,35.40625 44.1875,33.984375 37.640625,27.21875 31.109375,20.453125 19.1875,8.296875"/></defs><g id="g28" stroke-linecap="butt" stroke-linejoin="round" transform="matrix(0.07497,0,0,-0.07497,53.837955,140.69295)"><use id="use26" width="100%" height="100%" x="0" y="0" stroke-linecap="butt" stroke-linejoin="round" xlink:href="#DejaVuSans-32"/></g></g></g><g id="xtick_2" stroke-linecap="butt" stroke-linejoin="round"><g id="line2d_3" stroke-linecap="butt" stroke-linejoin="round"><path id="path32" fill="none" stroke="#000" stroke-dasharray=".4 3.2" stroke-dashoffset="0" stroke-linecap="butt" stroke-linejoin="round" stroke-width=".2" d="M 92.295666,130.7464 V 5.3" clip-path="url(#p840df2bde8)"/></g><g id="line2d_4" stroke-linecap="butt" stroke-linejoin="round"><g id="g37" stroke-linecap="butt" stroke-linejoin="round"><use id="use35" width="100%" height="100%" x="92.296" y="130.746" stroke="#000" stroke-linecap="butt" stroke-linejoin="round" stroke-width=".5" xlink:href="#md97f4e96d1"/></g></g><g id="text_2" stroke-linecap="butt" stroke-linejoin="round"><defs id="defs41"><path id="DejaVuSans-34" stroke-linecap="butt" stroke-linejoin="round" d="M 37.796875,64.3125 12.890625,25.390625 h 24.90625 z m -2.59375,8.59375 h 12.40625 V 25.390625 h 10.40625 V 17.1875 H 47.609375 V 0 h -9.8125 V 17.1875 H 4.890625 v 9.515625 z"/></defs><g id="g45" stroke-linecap="butt" stroke-linejoin="round" transform="matrix(0.07497,0,0,-0.07497,89.910683,140.69295)"><use id="use43" width="100%" height="100%" x="0" y="0" stroke-linecap="butt" stroke-linejoin="round" xlink:href="#DejaVuSans-34"/></g></g></g><g id="xtick_3" stroke-linecap="butt" stroke-linejoin="round"><g id="line2d_5" stroke-linecap="butt" stroke-linejoin="round"><path id="path49" fill="none" stroke="#000" stroke-dasharray=".4 3.2" stroke-dashoffset="0" stroke-linecap="butt" stroke-linejoin="round" stroke-width=".2" d="M 128.36839,130.7464 V 5.3" clip-path="url(#p840df2bde8)"/></g><g id="line2d_6" stroke-linecap="butt" stroke-linejoin="round"><g id="g54" stroke-linecap="butt" stroke-linejoin="round"><use id="use52" width="100%" height="100%" x="128.368" y="130.746" stroke="#000" stroke-linecap="butt" stroke-linejoin="round" stroke-width=".5" xlink:href="#md97f4e96d1"/></g></g><g id="text_3" stroke-linecap="butt" stroke-linejoin="round"><defs id="defs58"><path id="DejaVuSans-36" stroke-linecap="butt" stroke-linejoin="round" d="m 33.015625,40.375 q -6.640625,0 -10.53125,-4.546875 -3.875,-4.53125 -3.875,-12.4375 0,-7.859375 3.875,-12.4375 3.890625,-4.5625 10.53125,-4.5625 6.640625,0 10.515625,4.5625 3.875,4.578125 3.875,12.4375 0,7.90625 -3.875,12.4375 Q 39.65625,40.375 33.015625,40.375 M 52.59375,71.296875 V 62.3125 q -3.71875,1.75 -7.5,2.671875 -3.78125,0.9375 -7.5,0.9375 -9.765625,0 -14.921875,-6.59375 -5.140625,-6.59375 -5.875,-19.921875 2.875,4.25 7.21875,6.515625 4.359375,2.265625 9.578125,2.265625 10.984375,0 17.359375,-6.671875 6.375,-6.65625 6.375,-18.125 0,-11.234375 -6.640625,-18.03125 -6.640625,-6.78125 -17.671875,-6.78125 -12.65625,0 -19.34375,9.6875 -6.6875,9.703125 -6.6875,28.109375 0,17.28125 8.203125,27.5625 8.203125,10.28125 22.015625,10.28125 3.71875,0 7.5,-0.734375 3.78125,-0.734375 7.890625,-2.1875"/></defs><g id="g62" stroke-linecap="butt" stroke-linejoin="round" transform="matrix(0.07497,0,0,-0.07497,125.98341,140.69295)"><use id="use60" width="100%" height="100%" x="0" y="0" stroke-linecap="butt" stroke-linejoin="round" xlink:href="#DejaVuSans-36"/></g></g></g><g id="xtick_4" stroke-linecap="butt" stroke-linejoin="round"><g id="line2d_7" stroke-linecap="butt" stroke-linejoin="round"><path id="path66" fill="none" stroke="#000" stroke-dasharray=".4 3.2" stroke-dashoffset="0" stroke-linecap="butt" stroke-linejoin="round" stroke-width=".2" d="M 164.44112,130.7464 V 5.3" clip-path="url(#p840df2bde8)"/></g><g id="line2d_8" stroke-linecap="butt" stroke-linejoin="round"><g id="g71" stroke-linecap="butt" stroke-linejoin="round"><use id="use69" width="100%" height="100%" x="164.441" y="130.746" stroke="#000" stroke-linecap="butt" stroke-linejoin="round" stroke-width=".5" xlink:href="#md97f4e96d1"/></g></g><g id="text_4" stroke-linecap="butt" stroke-linejoin="round"><defs id="defs75"><path id="DejaVuSans-38" stroke-linecap="butt" stroke-linejoin="round" d="m 31.78125,34.625 q -7.03125,0 -11.0625,-3.765625 -4.015625,-3.765625 -4.015625,-10.34375 0,-6.59375 4.015625,-10.359375 4.03125,-3.765625 11.0625,-3.765625 7.03125,0 11.078125,3.78125 4.0625,3.796875 4.0625,10.34375 0,6.578125 -4.03125,10.34375 Q 38.875,34.625 31.78125,34.625 m -9.859375,4.1875 Q 15.578125,40.375 12.03125,44.71875 8.5,49.078125 8.5,55.328125 q 0,8.734375 6.21875,13.8125 6.234375,5.078125 17.0625,5.078125 10.890625,0 17.09375,-5.078125 6.203125,-5.078125 6.203125,-13.8125 0,-6.25 -3.546875,-10.609375 Q 48,40.375 41.703125,38.8125 q 7.125,-1.65625 11.09375,-6.5 3.984375,-4.828125 3.984375,-11.796875 0,-10.609375 -6.46875,-16.28125 -6.46875,-5.65625 -18.53125,-5.65625 -12.046875,0 -18.53125,5.65625 -6.46875,5.671875 -6.46875,16.28125 0,6.96875 4,11.796875 4.015625,4.84375 11.140625,6.5 M 18.3125,54.390625 q 0,-5.65625 3.53125,-8.828125 3.546875,-3.171875 9.9375,-3.171875 6.359375,0 9.9375,3.171875 3.59375,3.171875 3.59375,8.828125 0,5.671875 -3.59375,8.84375 -3.578125,3.171875 -9.9375,3.171875 -6.390625,0 -9.9375,-3.171875 Q 18.3125,60.0625 18.3125,54.390625"/></defs><g id="g79" stroke-linecap="butt" stroke-linejoin="round" transform="matrix(0.07497,0,0,-0.07497,162.05614,140.69295)"><use id="use77" width="100%" height="100%" x="0" y="0" stroke-linecap="butt" stroke-linejoin="round" xlink:href="#DejaVuSans-38"/></g></g></g><g id="xtick_5" stroke-linecap="butt" stroke-linejoin="round"><g id="line2d_9" stroke-linecap="butt" stroke-linejoin="round"><path id="path83" fill="none" stroke="#000" stroke-dasharray=".4 3.2" stroke-dashoffset="0" stroke-linecap="butt" stroke-linejoin="round" stroke-width=".2" d="M 200.51385,130.7464 V 5.3" clip-path="url(#p840df2bde8)"/></g><g id="line2d_10" stroke-linecap="butt" stroke-linejoin="round"><g id="g88" stroke-linecap="butt" stroke-linejoin="round"><use id="use86" width="100%" height="100%" x="200.514" y="130.746" stroke="#000" stroke-linecap="butt" stroke-linejoin="round" stroke-width=".5" xlink:href="#md97f4e96d1"/></g></g><g id="text_5" stroke-linecap="butt" stroke-linejoin="round"><defs id="defs93"><path id="DejaVuSans-31" stroke-linecap="butt" stroke-linejoin="round" d="m 12.40625,8.296875 h 16.109375 v 55.625 L 10.984375,60.40625 v 8.984375 l 17.4375,3.515625 H 38.28125 V 8.296875 H 54.390625 V 0 H 12.40625 Z"/><path id="DejaVuSans-30" stroke-linecap="butt" stroke-linejoin="round" d="m 31.78125,66.40625 q -7.609375,0 -11.453125,-7.5 Q 16.5,51.421875 16.5,36.375 q 0,-14.984375 3.828125,-22.484375 3.84375,-7.5 11.453125,-7.5 7.671875,0 11.5,7.5 3.84375,7.5 3.84375,22.484375 0,15.046875 -3.84375,22.53125 -3.828125,7.5 -11.5,7.5 m 0,7.8125 q 12.265625,0 18.734375,-9.703125 6.46875,-9.6875 6.46875,-28.140625 0,-18.40625 -6.46875,-28.109375 -6.46875,-9.6875 -18.734375,-9.6875 -12.25,0 -18.71875,9.6875 Q 6.59375,17.96875 6.59375,36.375 q 0,18.453125 6.46875,28.140625 6.46875,9.703125 18.71875,9.703125"/></defs><g id="g99" stroke-linecap="butt" stroke-linejoin="round" transform="matrix(0.07497,0,0,-0.07497,195.74388,140.69295)"><use id="use95" width="100%" height="100%" x="0" y="0" stroke-linecap="butt" stroke-linejoin="round" xlink:href="#DejaVuSans-31"/><use id="use97" width="100%" height="100%" x="63.623" y="0" stroke-linecap="butt" stroke-linejoin="round" xlink:href="#DejaVuSans-30"/></g></g></g><g id="text_6" stroke-linecap="butt" stroke-linejoin="round"><defs id="defs117"><path id="DejaVuSans-53" stroke-linecap="butt" stroke-linejoin="round" d="m 53.515625,70.515625 v -9.625 q -5.609375,2.6875 -10.59375,4 -4.984375,1.328125 -9.625,1.328125 -8.046875,0 -12.421875,-3.125 -4.375,-3.125 -4.375,-8.890625 0,-4.84375 2.90625,-7.3125 2.90625,-2.453125 11.015625,-3.96875 L 36.375,41.703125 Q 47.40625,39.59375 52.65625,34.296875 57.90625,29 57.90625,20.125 q 0,-10.609375 -7.109375,-16.078125 -7.09375,-5.46875 -20.8125,-5.46875 -5.171875,0 -11.015625,1.171875 Q 13.140625,0.921875 6.890625,3.21875 V 13.375 q 6,-3.359375 11.765625,-5.078125 5.765625,-1.703125 11.328125,-1.703125 8.4375,0 13.03125,3.3125 4.59375,3.328125 4.59375,9.484375 0,5.359375 -3.296875,8.390625 Q 41.015625,30.8125 33.5,32.328125 L 27.484375,33.5 q -11.03125,2.1875 -15.96875,6.875 -4.921875,4.6875 -4.921875,13.046875 0,9.671875 6.8125,15.234375 6.8125,5.5625 18.765625,5.5625 5.140625,0 10.453125,-0.9375 5.328125,-0.921875 10.890625,-2.765625"/><path id="DejaVuSans-74" stroke-linecap="butt" stroke-linejoin="round" d="M 18.3125,70.21875 V 54.6875 h 18.5 v -6.984375 h -18.5 v -29.6875 q 0,-6.6875 1.828125,-8.59375 1.828125,-1.90625 7.453125,-1.90625 H 36.8125 V 0 H 27.59375 Q 17.1875,0 13.234375,3.875 9.28125,7.765625 9.28125,18.015625 v 29.6875 H 2.6875 V 54.6875 h 6.59375 v 15.53125 z"/><path id="DejaVuSans-61" stroke-linecap="butt" stroke-linejoin="round" d="m 34.28125,27.484375 q -10.890625,0 -15.09375,-2.484375 -4.203125,-2.484375 -4.203125,-8.5 0,-4.78125 3.15625,-7.59375 3.15625,-2.796875 8.5625,-2.796875 7.484375,0 12,5.296875 4.515625,5.296875 4.515625,14.078125 v 2 z m 17.921875,3.71875 V 0 H 43.21875 v 8.296875 q -3.078125,-4.96875 -7.671875,-7.34375 -4.59375,-2.375 -11.234375,-2.375 -8.390625,0 -13.359375,4.71875 Q 6,8.015625 6,15.921875 q 0,9.21875 6.171875,13.90625 6.1875,4.6875 18.4375,4.6875 H 43.21875 v 0.890625 q 0,6.203125 -4.078125,9.59375 -4.078125,3.390625 -11.453125,3.390625 -4.6875,0 -9.140625,-1.125 -4.4375,-1.125 -8.53125,-3.375 v 8.3125 q 4.921875,1.90625 9.5625,2.84375 Q 24.21875,56 28.609375,56 q 11.875,0 17.734375,-6.15625 5.859375,-6.140625 5.859375,-18.640625"/><path id="DejaVuSans-65" stroke-linecap="butt" stroke-linejoin="round" d="m 56.203125,29.59375 v -4.390625 h -41.3125 q 0.59375,-9.28125 5.59375,-14.140625 5,-4.859375 13.9375,-4.859375 5.171875,0 10.03125,1.265625 4.859375,1.265625 9.65625,3.8125 v -8.5 q -4.84375,-2.046875 -9.921875,-3.125 -5.078125,-1.078125 -10.296875,-1.078125 -13.09375,0 -20.734375,7.609375 -7.640625,7.625 -7.640625,20.625 0,13.421875 7.25,21.296875 Q 20.015625,56 32.328125,56 q 11.03125,0 17.453125,-7.109375 6.421875,-7.09375 6.421875,-19.296875 m -8.984375,2.640625 q -0.09375,7.359375 -4.125,11.75 -4.03125,4.40625 -10.671875,4.40625 -7.515625,0 -12.03125,-4.25 -4.515625,-4.25 -5.203125,-11.96875 z"/><path id="DejaVuSans-6d" stroke-linecap="butt" stroke-linejoin="round" d="M 52,44.1875 Q 55.375,50.25 60.0625,53.125 64.75,56 71.09375,56 q 8.546875,0 13.1875,-5.984375 4.640625,-5.96875 4.640625,-17 V 0 h -9.03125 v 32.71875 q 0,7.859375 -2.796875,11.65625 -2.78125,3.8125 -8.484375,3.8125 -6.984375,0 -11.046875,-4.640625 -4.046875,-4.625 -4.046875,-12.640625 V 0 h -9.03125 v 32.71875 q 0,7.90625 -2.78125,11.6875 -2.78125,3.78125 -8.59375,3.78125 -6.890625,0 -10.953125,-4.65625 -4.046875,-4.65625 -4.046875,-12.625 V 0 h -9.03125 v 54.6875 h 9.03125 v -8.5 q 3.078125,5.03125 7.375,7.421875 Q 29.78125,56 35.6875,56 41.65625,56 45.828125,52.96875 50,49.953125 52,44.1875"/><path id="DejaVuSans-6e" stroke-linecap="butt" stroke-linejoin="round" d="M 54.890625,33.015625 V 0 H 45.90625 v 32.71875 q 0,7.765625 -3.03125,11.609375 -3.03125,3.859375 -9.078125,3.859375 -7.28125,0 -11.484375,-4.640625 -4.203125,-4.625 -4.203125,-12.640625 V 0 h -9.03125 v 54.6875 h 9.03125 v -8.5 q 3.234375,4.9375 7.59375,7.375 4.375,2.4375 10.09375,2.4375 9.421875,0 14.25,-5.828125 4.84375,-5.828125 4.84375,-17.15625"/><path id="DejaVuSans-73" stroke-linecap="butt" stroke-linejoin="round" d="m 44.28125,53.078125 v -8.5 Q 40.484375,46.53125 36.375,47.5 q -4.09375,0.984375 -8.5,0.984375 -6.6875,0 -10.03125,-2.046875 Q 14.5,44.390625 14.5,40.28125 q 0,-3.125 2.390625,-4.90625 2.390625,-1.78125 9.625,-3.390625 l 3.078125,-0.6875 Q 39.15625,29.25 43.1875,25.515625 47.21875,21.78125 47.21875,15.09375 q 0,-7.625 -6.03125,-12.078125 -6.03125,-4.4375 -16.578125,-4.4375 -4.390625,0 -9.15625,0.859375 Q 10.6875,0.296875 5.421875,2 v 9.28125 q 4.984375,-2.59375 9.8125,-3.890625 4.828125,-1.28125 9.578125,-1.28125 6.34375,0 9.75,2.171875 3.421875,2.171875 3.421875,6.125 0,3.65625 -2.46875,5.609375 -2.453125,1.953125 -10.8125,3.765625 l -3.125,0.734375 q -8.34375,1.75 -12.0625,5.390625 -3.703125,3.640625 -3.703125,9.984375 0,7.71875 5.46875,11.90625 Q 16.75,56 26.8125,56 q 4.96875,0 9.359375,-0.734375 4.40625,-0.71875 8.109375,-2.1875"/><path id="DejaVuSans-20" stroke-linecap="butt" stroke-linejoin="round"/><path id="DejaVuSans-28" stroke-linecap="butt" stroke-linejoin="round" d="M 31,75.875 Q 24.46875,64.65625 21.28125,53.65625 18.109375,42.671875 18.109375,31.390625 18.109375,20.125 21.3125,9.0625 24.515625,-2 31,-13.1875 H 23.1875 Q 15.875,-1.703125 12.234375,9.375 8.59375,20.453125 8.59375,31.390625 q 0,10.890625 3.609375,21.921875 3.625,11.046875 10.984375,22.5625 z"/><path id="DejaVuSans-4d" stroke-linecap="butt" stroke-linejoin="round" d="M 9.8125,72.90625 H 24.515625 L 43.109375,23.296875 61.8125,72.90625 H 76.515625 V 0 h -9.625 v 64.015625 l -18.796875,-50 H 38.1875 l -18.796875,50 V 0 H 9.8125 Z"/><path id="DejaVuSans-69" stroke-linecap="butt" stroke-linejoin="round" d="M 9.421875,54.6875 H 18.40625 V 0 H 9.421875 Z m 0,21.296875 H 18.40625 V 64.59375 H 9.421875 Z"/><path id="DejaVuSans-6c" stroke-linecap="butt" stroke-linejoin="round" d="M 9.421875,75.984375 H 18.40625 V 0 H 9.421875 Z"/><path id="DejaVuSans-6f" stroke-linecap="butt" stroke-linejoin="round" d="m 30.609375,48.390625 q -7.21875,0 -11.421875,-5.640625 -4.203125,-5.640625 -4.203125,-15.453125 0,-9.8125 4.171875,-15.453125 4.1875,-5.640625 11.453125,-5.640625 7.1875,0 11.375,5.65625 4.203125,5.671875 4.203125,15.4375 0,9.71875 -4.203125,15.40625 -4.1875,5.6875 -11.375,5.6875 m 0,7.609375 q 11.71875,0 18.40625,-7.625 6.703125,-7.609375 6.703125,-21.078125 0,-13.421875 -6.703125,-21.078125 -6.6875,-7.640625 -18.40625,-7.640625 -11.765625,0 -18.4375,7.640625 -6.65625,7.65625 -6.65625,21.078125 0,13.46875 6.65625,21.078125 Q 18.84375,56 30.609375,56"/><path id="DejaVuSans-29" stroke-linecap="butt" stroke-linejoin="round" d="m 8.015625,75.875 h 7.8125 q 7.3125,-11.515625 10.953125,-22.5625 3.640625,-11.03125 3.640625,-21.921875 0,-10.9375 -3.640625,-22.015625 -3.640625,-11.078125 -10.953125,-22.5625 h -7.8125 Q 14.5,-2 17.703125,9.0625 20.90625,20.125 20.90625,31.390625 q 0,11.28125 -3.203125,22.265625 -3.203125,11 -9.6875,22.21875"/></defs><g id="g161" stroke-linecap="butt" stroke-linejoin="round" transform="matrix(0.09,0,0,-0.09,71.551774,150.09068)"><use id="use119" width="100%" height="100%" x="0" y="0" stroke-linecap="butt" stroke-linejoin="round" xlink:href="#DejaVuSans-53"/><use id="use121" width="100%" height="100%" x="63.477" y="0" stroke-linecap="butt" stroke-linejoin="round" xlink:href="#DejaVuSans-74"/><use id="use123" width="100%" height="100%" x="102.686" y="0" stroke-linecap="butt" stroke-linejoin="round" xlink:href="#DejaVuSans-61"/><use id="use125" width="100%" height="100%" x="163.965" y="0" stroke-linecap="butt" stroke-linejoin="round" xlink:href="#DejaVuSans-74"/><use id="use127" width="100%" height="100%" x="203.174" y="0" stroke-linecap="butt" stroke-linejoin="round" xlink:href="#DejaVuSans-65"/><use id="use129" width="100%" height="100%" x="264.697" y="0" stroke-linecap="butt" stroke-linejoin="round" xlink:href="#DejaVuSans-6d"/><use id="use131" width="100%" height="100%" x="362.109" y="0" stroke-linecap="butt" stroke-linejoin="round" xlink:href="#DejaVuSans-65"/><use id="use133" width="100%" height="100%" x="423.633" y="0" stroke-linecap="butt" stroke-linejoin="round" xlink:href="#DejaVuSans-6e"/><use id="use135" width="100%" height="100%" x="487.012" y="0" stroke-linecap="butt" stroke-linejoin="round" xlink:href="#DejaVuSans-74"/><use id="use137" width="100%" height="100%" x="526.221" y="0" stroke-linecap="butt" stroke-linejoin="round" xlink:href="#DejaVuSans-73"/><use id="use139" width="100%" height="100%" x="578.32" y="0" stroke-linecap="butt" stroke-linejoin="round" xlink:href="#DejaVuSans-20"/><use id="use141" width="100%" height="100%" x="610.107" y="0" stroke-linecap="butt" stroke-linejoin="round" xlink:href="#DejaVuSans-28"/><use id="use143" width="100%" height="100%" x="649.121" y="0" stroke-linecap="butt" stroke-linejoin="round" xlink:href="#DejaVuSans-4d"/><use id="use145" width="100%" height="100%" x="735.4" y="0" stroke-linecap="butt" stroke-linejoin="round" xlink:href="#DejaVuSans-69"/><use id="use147" width="100%" height="100%" x="763.184" y="0" stroke-linecap="butt" stroke-linejoin="round" xlink:href="#DejaVuSans-6c"/><use id="use149" width="100%" height="100%" x="790.967" y="0" stroke-linecap="butt" stroke-linejoin="round" xlink:href="#DejaVuSans-6c"/><use id="use151" width="100%" height="100%" x="818.75" y="0" stroke-linecap="butt" stroke-linejoin="round" xlink:href="#DejaVuSans-69"/><use id="use153" width="100%" height="100%" x="846.533" y="0" stroke-linecap="butt" stroke-linejoin="round" xlink:href="#DejaVuSans-6f"/><use id="use155" width="100%" height="100%" x="907.715" y="0" stroke-linecap="butt" stroke-linejoin="round" xlink:href="#DejaVuSans-6e"/><use id="use157" width="100%" height="100%" x="971.094" y="0" stroke-linecap="butt" stroke-linejoin="round" xlink:href="#DejaVuSans-73"/><use id="use159" width="100%" height="100%" x="1023.193" y="0" stroke-linecap="butt" stroke-linejoin="round" xlink:href="#DejaVuSans-29"/></g></g></g><g id="matplotlib.axis_2" stroke-linecap="butt" stroke-linejoin="round"><g id="ytick_1" stroke-linecap="butt" stroke-linejoin="round"><g id="line2d_11" stroke-linecap="butt" stroke-linejoin="round"><path id="path165" fill="none" stroke="#000" stroke-dasharray=".4 3.2" stroke-dashoffset="0" stroke-linecap="butt" stroke-linejoin="round" stroke-width=".2" d="M 30.070211,126.34917 H 208.63021" clip-path="url(#p840df2bde8)"/></g><g id="line2d_12" stroke-linecap="butt" stroke-linejoin="round"><defs id="defs169"><path id="m5550515080" stroke="#000" stroke-linecap="butt" stroke-linejoin="round" stroke-width=".5" d="M 0,0 H -3.5"/></defs><g id="g173" stroke-linecap="butt" stroke-linejoin="round"><use id="use171" width="100%" height="100%" x="30.07" y="126.349" stroke="#000" stroke-linecap="butt" stroke-linejoin="round" stroke-width=".5" xlink:href="#m5550515080"/></g></g><g id="text_7" stroke-linecap="butt" stroke-linejoin="round"><g id="g178" stroke-linecap="butt" stroke-linejoin="round" transform="matrix(0.07497,0,0,-0.07497,21.050245,129.19744)"><use id="use176" width="100%" height="100%" x="0" y="0" stroke-linecap="butt" stroke-linejoin="round" xlink:href="#DejaVuSans-30"/></g></g></g><g id="ytick_2" stroke-linecap="butt" stroke-linejoin="round"><g id="line2d_13" stroke-linecap="butt" stroke-linejoin="round"><path id="path182" fill="none" stroke="#000" stroke-dasharray=".4 3.2" stroke-dashoffset="0" stroke-linecap="butt" stroke-linejoin="round" stroke-width=".2" d="M 30.070211,107.15984 H 208.63021" clip-path="url(#p840df2bde8)"/></g><g id="line2d_14" stroke-linecap="butt" stroke-linejoin="round"><g id="g187" stroke-linecap="butt" stroke-linejoin="round"><use id="use185" width="100%" height="100%" x="30.07" y="107.16" stroke="#000" stroke-linecap="butt" stroke-linejoin="round" stroke-width=".5" xlink:href="#m5550515080"/></g></g><g id="text_8" stroke-linecap="butt" stroke-linejoin="round"><g id="g194" stroke-linecap="butt" stroke-linejoin="round" transform="matrix(0.07497,0,0,-0.07497,16.280279,110.00811)"><use id="use190" width="100%" height="100%" x="0" y="0" stroke-linecap="butt" stroke-linejoin="round" xlink:href="#DejaVuSans-32"/><use id="use192" width="100%" height="100%" x="63.623" y="0" stroke-linecap="butt" stroke-linejoin="round" xlink:href="#DejaVuSans-30"/></g></g></g><g id="ytick_3" stroke-linecap="butt" stroke-linejoin="round"><g id="line2d_15" stroke-linecap="butt" stroke-linejoin="round"><path id="path198" fill="none" stroke="#000" stroke-dasharray=".4 3.2" stroke-dashoffset="0" stroke-linecap="butt" stroke-linejoin="round" stroke-width=".2" d="M 30.070211,87.970507 H 208.63021" clip-path="url(#p840df2bde8)"/></g><g id="line2d_16" stroke-linecap="butt" stroke-linejoin="round"><g id="g203" stroke-linecap="butt" stroke-linejoin="round"><use id="use201" width="100%" height="100%" x="30.07" y="87.971" stroke="#000" stroke-linecap="butt" stroke-linejoin="round" stroke-width=".5" xlink:href="#m5550515080"/></g></g><g id="text_9" stroke-linecap="butt" stroke-linejoin="round"><g id="g210" stroke-linecap="butt" stroke-linejoin="round" transform="matrix(0.07497,0,0,-0.07497,16.280279,90.818782)"><use id="use206" width="100%" height="100%" x="0" y="0" stroke-linecap="butt" stroke-linejoin="round" xlink:href="#DejaVuSans-34"/><use id="use208" width="100%" height="100%" x="63.623" y="0" stroke-linecap="butt" stroke-linejoin="round" xlink:href="#DejaVuSans-30"/></g></g></g><g id="ytick_4" stroke-linecap="butt" stroke-linejoin="round"><g id="line2d_17" stroke-linecap="butt" stroke-linejoin="round"><path id="path214" fill="none" stroke="#000" stroke-dasharray=".4 3.2" stroke-dashoffset="0" stroke-linecap="butt" stroke-linejoin="round" stroke-width=".2" d="M 30.070211,68.781178 H 208.63021" clip-path="url(#p840df2bde8)"/></g><g id="line2d_18" stroke-linecap="butt" stroke-linejoin="round"><g id="g219" stroke-linecap="butt" stroke-linejoin="round"><use id="use217" width="100%" height="100%" x="30.07" y="68.781" stroke="#000" stroke-linecap="butt" stroke-linejoin="round" stroke-width=".5" xlink:href="#m5550515080"/></g></g><g id="text_10" stroke-linecap="butt" stroke-linejoin="round"><g id="g226" stroke-linecap="butt" stroke-linejoin="round" transform="matrix(0.07497,0,0,-0.07497,16.280279,71.629453)"><use id="use222" width="100%" height="100%" x="0" y="0" stroke-linecap="butt" stroke-linejoin="round" xlink:href="#DejaVuSans-36"/><use id="use224" width="100%" height="100%" x="63.623" y="0" stroke-linecap="butt" stroke-linejoin="round" xlink:href="#DejaVuSans-30"/></g></g></g><g id="ytick_5" stroke-linecap="butt" stroke-linejoin="round"><g id="line2d_19" stroke-linecap="butt" stroke-linejoin="round"><path id="path230" fill="none" stroke="#000" stroke-dasharray=".4 3.2" stroke-dashoffset="0" stroke-linecap="butt" stroke-linejoin="round" stroke-width=".2" d="M 30.070211,49.59185 H 208.63021" clip-path="url(#p840df2bde8)"/></g><g id="line2d_20" stroke-linecap="butt" stroke-linejoin="round"><g id="g235" stroke-linecap="butt" stroke-linejoin="round"><use id="use233" width="100%" height="100%" x="30.07" y="49.592" stroke="#000" stroke-linecap="butt" stroke-linejoin="round" stroke-width=".5" xlink:href="#m5550515080"/></g></g><g id="text_11" stroke-linecap="butt" stroke-linejoin="round"><g id="g242" stroke-linecap="butt" stroke-linejoin="round" transform="matrix(0.07497,0,0,-0.07497,16.280279,52.440124)"><use id="use238" width="100%" height="100%" x="0" y="0" stroke-linecap="butt" stroke-linejoin="round" xlink:href="#DejaVuSans-38"/><use id="use240" width="100%" height="100%" x="63.623" y="0" stroke-linecap="butt" stroke-linejoin="round" xlink:href="#DejaVuSans-30"/></g></g></g><g id="ytick_6" stroke-linecap="butt" stroke-linejoin="round"><g id="line2d_21" stroke-linecap="butt" stroke-linejoin="round"><path id="path246" fill="none" stroke="#000" stroke-dasharray=".4 3.2" stroke-dashoffset="0" stroke-linecap="butt" stroke-linejoin="round" stroke-width=".2" d="M 30.070211,30.402521 H 208.63021" clip-path="url(#p840df2bde8)"/></g><g id="line2d_22" stroke-linecap="butt" stroke-linejoin="round"><g id="g251" stroke-linecap="butt" stroke-linejoin="round"><use id="use249" width="100%" height="100%" x="30.07" y="30.403" stroke="#000" stroke-linecap="butt" stroke-linejoin="round" stroke-width=".5" xlink:href="#m5550515080"/></g></g><g id="text_12" stroke-linecap="butt" stroke-linejoin="round"><g id="g260" stroke-linecap="butt" stroke-linejoin="round" transform="matrix(0.07497,0,0,-0.07497,11.510313,33.250795)"><use id="use254" width="100%" height="100%" x="0" y="0" stroke-linecap="butt" stroke-linejoin="round" xlink:href="#DejaVuSans-31"/><use id="use256" width="100%" height="100%" x="63.623" y="0" stroke-linecap="butt" stroke-linejoin="round" xlink:href="#DejaVuSans-30"/><use id="use258" width="100%" height="100%" x="127.246" y="0" stroke-linecap="butt" stroke-linejoin="round" xlink:href="#DejaVuSans-30"/></g></g></g><g id="ytick_7" stroke-linecap="butt" stroke-linejoin="round"><g id="line2d_23" stroke-linecap="butt" stroke-linejoin="round"><path id="path264" fill="none" stroke="#000" stroke-dasharray=".4 3.2" stroke-dashoffset="0" stroke-linecap="butt" stroke-linejoin="round" stroke-width=".2" d="M 30.070211,11.213192 H 208.63021" clip-path="url(#p840df2bde8)"/></g><g id="line2d_24" stroke-linecap="butt" stroke-linejoin="round"><g id="g269" stroke-linecap="butt" stroke-linejoin="round"><use id="use267" width="100%" height="100%" x="30.07" y="11.213" stroke="#000" stroke-linecap="butt" stroke-linejoin="round" stroke-width=".5" xlink:href="#m5550515080"/></g></g><g id="text_13" stroke-linecap="butt" stroke-linejoin="round"><g id="g278" stroke-linecap="butt" stroke-linejoin="round" transform="matrix(0.07497,0,0,-0.07497,11.510313,14.061466)"><use id="use272" width="100%" height="100%" x="0" y="0" stroke-linecap="butt" stroke-linejoin="round" xlink:href="#DejaVuSans-31"/><use id="use274" width="100%" height="100%" x="63.623" y="0" stroke-linecap="butt" stroke-linejoin="round" xlink:href="#DejaVuSans-32"/><use id="use276" width="100%" height="100%" x="127.246" y="0" stroke-linecap="butt" stroke-linejoin="round" xlink:href="#DejaVuSans-30"/></g></g></g><g id="text_14" stroke-linecap="butt" stroke-linejoin="round"><defs id="defs283"><path id="DejaVuSans-54" stroke-linecap="butt" stroke-linejoin="round" d="M -0.296875,72.90625 H 61.375 v -8.3125 H 35.5 V 0 H 25.59375 V 64.59375 H -0.296875 Z"/></defs><g id="g301" stroke-linecap="butt" stroke-linejoin="round" transform="matrix(0,-0.09,-0.09,0,8.638594,86.457731)"><use id="use285" width="100%" height="100%" x="0" y="0" stroke-linecap="butt" stroke-linejoin="round" xlink:href="#DejaVuSans-54"/><use id="use287" width="100%" height="100%" x="61.037" y="0" stroke-linecap="butt" stroke-linejoin="round" xlink:href="#DejaVuSans-69"/><use id="use289" width="100%" height="100%" x="88.82" y="0" stroke-linecap="butt" stroke-linejoin="round" xlink:href="#DejaVuSans-6d"/><use id="use291" width="100%" height="100%" x="186.232" y="0" stroke-linecap="butt" stroke-linejoin="round" xlink:href="#DejaVuSans-65"/><use id="use293" width="100%" height="100%" x="247.756" y="0" stroke-linecap="butt" stroke-linejoin="round" xlink:href="#DejaVuSans-20"/><use id="use295" width="100%" height="100%" x="279.543" y="0" stroke-linecap="butt" stroke-linejoin="round" xlink:href="#DejaVuSans-28"/><use id="use297" width="100%" height="100%" x="318.557" y="0" stroke-linecap="butt" stroke-linejoin="round" xlink:href="#DejaVuSans-73"/><use id="use299" width="100%" height="100%" x="370.656" y="0" stroke-linecap="butt" stroke-linejoin="round" xlink:href="#DejaVuSans-29"/></g></g></g><g id="line2d_25" stroke-linecap="butt" stroke-linejoin="round"><path id="path305" fill="none" stroke="#b20000" stroke-linecap="square" stroke-linejoin="round" d="m 38.186575,125.04429 18.036364,-1.2665 18.036363,-1.22811 18.036364,-1.30488 18.036364,-1.51595 18.03636,-1.0938 18.03637,-1.31446 18.03636,-1.64069 18.03636,-0.81555 18.03637,-1.2569" clip-path="url(#p840df2bde8)"/><defs id="defs308"><path id="mbfa404bd6c" stroke="#b20000" stroke-linecap="butt" stroke-linejoin="round" stroke-width=".5" d="M 0,1.75 C 0.464105,1.75 0.909265,1.565609 1.237437,1.237437 1.565609,0.909265 1.75,0.464105 1.75,0 1.75,-0.464105 1.565609,-0.909265 1.237437,-1.237437 0.909265,-1.565609 0.464105,-1.75 0,-1.75 c -0.464105,0 -0.909265,0.184391 -1.237437,0.512563 C -1.565609,-0.909265 -1.75,-0.464105 -1.75,0 c 0,0.464105 0.184391,0.909265 0.512563,1.237437 C -0.909265,1.565609 -0.464105,1.75 0,1.75 Z"/></defs><g id="g330" stroke-linecap="butt" stroke-linejoin="round" clip-path="url(#p840df2bde8)"><use id="use310" width="100%" height="100%" x="38.187" y="125.044" fill="#b20000" stroke="#b20000" stroke-linecap="butt" stroke-linejoin="round" stroke-width=".5" xlink:href="#mbfa404bd6c"/><use id="use312" width="100%" height="100%" x="56.223" y="123.778" fill="#b20000" stroke="#b20000" stroke-linecap="butt" stroke-linejoin="round" stroke-width=".5" xlink:href="#mbfa404bd6c"/><use id="use314" width="100%" height="100%" x="74.259" y="122.55" fill="#b20000" stroke="#b20000" stroke-linecap="butt" stroke-linejoin="round" stroke-width=".5" xlink:href="#mbfa404bd6c"/><use id="use316" width="100%" height="100%" x="92.296" y="121.245" fill="#b20000" stroke="#b20000" stroke-linecap="butt" stroke-linejoin="round" stroke-width=".5" xlink:href="#mbfa404bd6c"/><use id="use318" width="100%" height="100%" x="110.332" y="119.729" fill="#b20000" stroke="#b20000" stroke-linecap="butt" stroke-linejoin="round" stroke-width=".5" xlink:href="#mbfa404bd6c"/><use id="use320" width="100%" height="100%" x="128.368" y="118.635" fill="#b20000" stroke="#b20000" stroke-linecap="butt" stroke-linejoin="round" stroke-width=".5" xlink:href="#mbfa404bd6c"/><use id="use322" width="100%" height="100%" x="146.405" y="117.321" fill="#b20000" stroke="#b20000" stroke-linecap="butt" stroke-linejoin="round" stroke-width=".5" xlink:href="#mbfa404bd6c"/><use id="use324" width="100%" height="100%" x="164.441" y="115.68" fill="#b20000" stroke="#b20000" stroke-linecap="butt" stroke-linejoin="round" stroke-width=".5" xlink:href="#mbfa404bd6c"/><use id="use326" width="100%" height="100%" x="182.477" y="114.864" fill="#b20000" stroke="#b20000" stroke-linecap="butt" stroke-linejoin="round" stroke-width=".5" xlink:href="#mbfa404bd6c"/><use id="use328" width="100%" height="100%" x="200.514" y="113.607" fill="#b20000" stroke="#b20000" stroke-linecap="butt" stroke-linejoin="round" stroke-width=".5" xlink:href="#mbfa404bd6c"/></g></g><g id="line2d_26" stroke-linecap="butt" stroke-linejoin="round"><path id="path333" fill="none" stroke="#00b200" stroke-dasharray="2.5 1" stroke-dashoffset="0" stroke-linecap="butt" stroke-linejoin="round" d="M 38.186575,115.47841 56.222939,104.49252 74.259302,93.353114 92.295666,81.119917 110.33203,70.920789 128.36839,59.032999 146.40476,46.828586 164.44112,35.324583 182.47748,24.540181 200.51385,11.002109" clip-path="url(#p840df2bde8)"/><defs id="defs336"><path id="m73af356b5a" stroke="#00b200" stroke-linecap="butt" stroke-linejoin="miter" stroke-width=".5" d="m -1.75,1.75 h 3.5 v -3.5 h -3.5 z"/></defs><g id="g358" stroke-linecap="butt" stroke-linejoin="round" clip-path="url(#p840df2bde8)"><use id="use338" width="100%" height="100%" x="38.187" y="115.478" fill="#00b200" stroke="#00b200" stroke-linecap="butt" stroke-linejoin="miter" stroke-width=".5" xlink:href="#m73af356b5a"/><use id="use340" width="100%" height="100%" x="56.223" y="104.493" fill="#00b200" stroke="#00b200" stroke-linecap="butt" stroke-linejoin="miter" stroke-width=".5" xlink:href="#m73af356b5a"/><use id="use342" width="100%" height="100%" x="74.259" y="93.353" fill="#00b200" stroke="#00b200" stroke-linecap="butt" stroke-linejoin="miter" stroke-width=".5" xlink:href="#m73af356b5a"/><use id="use344" width="100%" height="100%" x="92.296" y="81.12" fill="#00b200" stroke="#00b200" stroke-linecap="butt" stroke-linejoin="miter" stroke-width=".5" xlink:href="#m73af356b5a"/><use id="use346" width="100%" height="100%" x="110.332" y="70.921" fill="#00b200" stroke="#00b200" stroke-linecap="butt" stroke-linejoin="miter" stroke-width=".5" xlink:href="#m73af356b5a"/><use id="use348" width="100%" height="100%" x="128.368" y="59.033" fill="#00b200" stroke="#00b200" stroke-linecap="butt" stroke-linejoin="miter" stroke-width=".5" xlink:href="#m73af356b5a"/><use id="use350" width="100%" height="100%" x="146.405" y="46.829" fill="#00b200" stroke="#00b200" stroke-linecap="butt" stroke-linejoin="miter" stroke-width=".5" xlink:href="#m73af356b5a"/><use id="use352" width="100%" height="100%" x="164.441" y="35.325" fill="#00b200" stroke="#00b200" stroke-linecap="butt" stroke-linejoin="miter" stroke-width=".5" xlink:href="#m73af356b5a"/><use id="use354" width="100%" height="100%" x="182.477" y="24.54" fill="#00b200" stroke="#00b200" stroke-linecap="butt" stroke-linejoin="miter" stroke-width=".5" xlink:href="#m73af356b5a"/><use id="use356" width="100%" height="100%" x="200.514" y="11.002" fill="#00b200" stroke="#00b200" stroke-linecap="butt" stroke-linejoin="miter" stroke-width=".5" xlink:href="#m73af356b5a"/></g></g><g id="line2d_27" stroke-linecap="butt" stroke-linejoin="round"><path id="path361" fill="none" stroke="#0000b2" stroke-dasharray="1 1" stroke-dashoffset="0" stroke-linecap="butt" stroke-linejoin="round" d="m 38.186575,116.37071 18.036364,-4.15449 18.036363,-4.28881 18.036364,-4.87409 18.036364,-3.655567 18.03636,-5.190714 18.03637,-4.1353 18.03636,-5.44977 18.03636,-9.498717 18.03637,-3.377322" clip-path="url(#p840df2bde8)"/><defs id="defs364"><path id="m4f1829a3a1" stroke="#0000b2" stroke-linecap="butt" stroke-linejoin="miter" stroke-width=".5" d="m 0,1.75 1.75,-3.5 h -3.5 z"/></defs><g id="g386" stroke-linecap="butt" stroke-linejoin="round" clip-path="url(#p840df2bde8)"><use id="use366" width="100%" height="100%" x="38.187" y="116.371" fill="#0000b2" stroke="#0000b2" stroke-linecap="butt" stroke-linejoin="miter" stroke-width=".5" xlink:href="#m4f1829a3a1"/><use id="use368" width="100%" height="100%" x="56.223" y="112.216" fill="#0000b2" stroke="#0000b2" stroke-linecap="butt" stroke-linejoin="miter" stroke-width=".5" xlink:href="#m4f1829a3a1"/><use id="use370" width="100%" height="100%" x="74.259" y="107.927" fill="#0000b2" stroke="#0000b2" stroke-linecap="butt" stroke-linejoin="miter" stroke-width=".5" xlink:href="#m4f1829a3a1"/><use id="use372" width="100%" height="100%" x="92.296" y="103.053" fill="#0000b2" stroke="#0000b2" stroke-linecap="butt" stroke-linejoin="miter" stroke-width=".5" xlink:href="#m4f1829a3a1"/><use id="use374" width="100%" height="100%" x="110.332" y="99.398" fill="#0000b2" stroke="#0000b2" stroke-linecap="butt" stroke-linejoin="miter" stroke-width=".5" xlink:href="#m4f1829a3a1"/><use id="use376" width="100%" height="100%" x="128.368" y="94.207" fill="#0000b2" stroke="#0000b2" stroke-linecap="butt" stroke-linejoin="miter" stroke-width=".5" xlink:href="#m4f1829a3a1"/><use id="use378" width="100%" height="100%" x="146.405" y="90.072" fill="#0000b2" stroke="#0000b2" stroke-linecap="butt" stroke-linejoin="miter" stroke-width=".5" xlink:href="#m4f1829a3a1"/><use id="use380" width="100%" height="100%" x="164.441" y="84.622" fill="#0000b2" stroke="#0000b2" stroke-linecap="butt" stroke-linejoin="miter" stroke-width=".5" xlink:href="#m4f1829a3a1"/><use id="use382" width="100%" height="100%" x="182.477" y="75.123" fill="#0000b2" stroke="#0000b2" stroke-linecap="butt" stroke-linejoin="miter" stroke-width=".5" xlink:href="#m4f1829a3a1"/><use id="use384" width="100%" height="100%" x="200.514" y="71.746" fill="#0000b2" stroke="#0000b2" stroke-linecap="butt" stroke-linejoin="miter" stroke-width=".5" xlink:href="#m4f1829a3a1"/></g></g><g id="patch_3" stroke-linecap="butt" stroke-linejoin="round"><path id="path389" fill="none" stroke="#000" stroke-linecap="square" stroke-linejoin="miter" stroke-width=".5" d="M 30.070211,130.7464 V 5.3"/></g><g id="patch_4" stroke-linecap="butt" stroke-linejoin="round"><path id="path392" fill="none" stroke="#000" stroke-linecap="square" stroke-linejoin="miter" stroke-width=".5" d="M 208.63021,130.7464 V 5.3"/></g><g id="patch_5" stroke-linecap="butt" stroke-linejoin="round"><path id="path395" fill="none" stroke="#000" stroke-linecap="square" stroke-linejoin="miter" stroke-width=".5" d="M 30.070211,130.7464 H 208.63021"/></g><g id="patch_6" stroke-linecap="butt" stroke-linejoin="round"><path id="path398" fill="none" stroke="#000" stroke-linecap="square" stroke-linejoin="miter" stroke-width=".5" d="M 30.070211,5.3 H 208.63021"/></g><g id="legend_1" stroke-linecap="butt" stroke-linejoin="round"><g id="patch_7" stroke-linecap="butt" stroke-linejoin="round"><path id="path401" fill="#fff" stroke="#ccc" stroke-linecap="butt" stroke-linejoin="miter" stroke-width=".5" d="m 33.818711,33.439521 h 43.391231 q 1.4994,0 1.4994,-1.4994 V 9.0485 q 0,-1.4994 -1.4994,-1.4994 H 33.818711 q -1.4994,0 -1.4994,1.4994 v 22.891621 q 0,1.4994 1.4994,1.4994 z" opacity=".9"/></g><g id="line2d_28" stroke-linecap="butt" stroke-linejoin="round"><path id="path404" fill="none" stroke="#b20000" stroke-linecap="square" stroke-linejoin="round" d="m 33.818711,12.121099 h 14.994"/></g><g id="line2d_29" stroke-linecap="butt" stroke-linejoin="round"><g id="g409" stroke-linecap="butt" stroke-linejoin="round"><use id="use407" width="100%" height="100%" x="41.316" y="12.121" fill="#b20000" stroke="#b20000" stroke-linecap="butt" stroke-linejoin="round" stroke-width=".5" xlink:href="#mbfa404bd6c"/></g></g><g id="text_15" stroke-linecap="butt" stroke-linejoin="round"><defs id="defs414"><path id="DejaVuSans-72" stroke-linecap="butt" stroke-linejoin="round" d="m 41.109375,46.296875 q -1.515625,0.875 -3.296875,1.28125 Q 36.03125,48 33.890625,48 26.265625,48 22.1875,43.046875 18.109375,38.09375 18.109375,28.8125 V 0 h -9.03125 v 54.6875 h 9.03125 v -8.5 q 2.84375,4.984375 7.375,7.390625 Q 30.03125,56 36.53125,56 q 0.921875,0 2.046875,-0.125 1.125,-0.109375 2.484375,-0.359375 z"/><path id="DejaVuSans-64" stroke-linecap="butt" stroke-linejoin="round" d="m 45.40625,46.390625 v 29.59375 h 8.984375 V 0 H 45.40625 v 8.203125 q -2.828125,-4.875 -7.15625,-7.25 -4.3125,-2.375 -10.375,-2.375 -9.90625,0 -16.140625,7.90625 -6.21875,7.921875 -6.21875,20.8125 0,12.890625 6.21875,20.796875 Q 17.96875,56 27.875,56 q 6.0625,0 10.375,-2.375 4.328125,-2.359375 7.15625,-7.234375 M 14.796875,27.296875 q 0,-9.90625 4.078125,-15.546875 4.078125,-5.640625 11.203125,-5.640625 7.125,0 11.21875,5.640625 4.109375,5.640625 4.109375,15.546875 0,9.90625 -4.109375,15.546875 -4.09375,5.640625 -11.21875,5.640625 -7.125,0 -11.203125,-5.640625 -4.078125,-5.640625 -4.078125,-15.546875"/></defs><g id="g428" stroke-linecap="butt" stroke-linejoin="round" transform="matrix(0.07497,0,0,-0.07497,49.937261,14.745049)"><use id="use416" width="100%" height="100%" x="0" y="0" stroke-linecap="butt" stroke-linejoin="round" xlink:href="#DejaVuSans-20"/><use id="use418" width="100%" height="100%" x="31.787" y="0" stroke-linecap="butt" stroke-linejoin="round" xlink:href="#DejaVuSans-73"/><use id="use420" width="100%" height="100%" x="83.887" y="0" stroke-linecap="butt" stroke-linejoin="round" xlink:href="#DejaVuSans-65"/><use id="use422" width="100%" height="100%" x="145.41" y="0" stroke-linecap="butt" stroke-linejoin="round" xlink:href="#DejaVuSans-72"/><use id="use424" width="100%" height="100%" x="186.508" y="0" stroke-linecap="butt" stroke-linejoin="round" xlink:href="#DejaVuSans-64"/><use id="use426" width="100%" height="100%" x="249.984" y="0" stroke-linecap="butt" stroke-linejoin="round" xlink:href="#DejaVuSans-69"/></g></g><g id="line2d_30" stroke-linecap="butt" stroke-linejoin="round"><path id="path431" fill="none" stroke="#00b200" stroke-dasharray="2.5 1" stroke-dashoffset="0" stroke-linecap="butt" stroke-linejoin="round" d="m 33.818711,19.939064 h 14.994"/></g><g id="line2d_31" stroke-linecap="butt" stroke-linejoin="round"><g id="g436" stroke-linecap="butt" stroke-linejoin="round"><use id="use434" width="100%" height="100%" x="41.316" y="19.939" fill="#00b200" stroke="#00b200" stroke-linecap="butt" stroke-linejoin="miter" stroke-width=".5" xlink:href="#m73af356b5a"/></g></g><g id="text_16" stroke-linecap="butt" stroke-linejoin="round"><defs id="defs440"><path id="DejaVuSans-70" stroke-linecap="butt" stroke-linejoin="round" d="m 18.109375,8.203125 v -29 H 9.078125 V 54.6875 h 9.03125 v -8.296875 q 2.84375,4.875 7.15625,7.234375 Q 29.59375,56 35.59375,56 q 9.96875,0 16.1875,-7.90625 6.234375,-7.90625 6.234375,-20.796875 0,-12.890625 -6.234375,-20.8125 -6.21875,-7.90625 -16.1875,-7.90625 -6,0 -10.328125,2.375 -4.3125,2.375 -7.15625,7.25 M 48.6875,27.296875 q 0,9.90625 -4.078125,15.546875 -4.078125,5.640625 -11.203125,5.640625 -7.140625,0 -11.21875,-5.640625 -4.078125,-5.640625 -4.078125,-15.546875 0,-9.90625 4.078125,-15.546875 4.078125,-5.640625 11.21875,-5.640625 7.125,0 11.203125,5.640625 4.078125,5.640625 4.078125,15.546875"/></defs><g id="g456" stroke-linecap="butt" stroke-linejoin="round" transform="matrix(0.07497,0,0,-0.07497,49.937261,22.563014)"><use id="use442" width="100%" height="100%" x="0" y="0" stroke-linecap="butt" stroke-linejoin="round" xlink:href="#DejaVuSans-20"/><use id="use444" width="100%" height="100%" x="31.787" y="0" stroke-linecap="butt" stroke-linejoin="round" xlink:href="#DejaVuSans-72"/><use id="use446" width="100%" height="100%" x="72.9" y="0" stroke-linecap="butt" stroke-linejoin="round" xlink:href="#DejaVuSans-61"/><use id="use448" width="100%" height="100%" x="134.18" y="0" stroke-linecap="butt" stroke-linejoin="round" xlink:href="#DejaVuSans-70"/><use id="use450" width="100%" height="100%" x="197.656" y="0" stroke-linecap="butt" stroke-linejoin="round" xlink:href="#DejaVuSans-70"/><use id="use452" width="100%" height="100%" x="261.133" y="0" stroke-linecap="butt" stroke-linejoin="round" xlink:href="#DejaVuSans-65"/><use id="use454" width="100%" height="100%" x="322.656" y="0" stroke-linecap="butt" stroke-linejoin="round" xlink:href="#DejaVuSans-72"/></g></g><g id="line2d_32" stroke-linecap="butt" stroke-linejoin="round"><path id="path459" fill="none" stroke="#0000b2" stroke-dasharray="1 1" stroke-dashoffset="0" stroke-linecap="butt" stroke-linejoin="round" d="m 33.818711,27.757029 h 14.994"/></g><g id="line2d_33" stroke-linecap="butt" stroke-linejoin="round"><g id="g464" stroke-linecap="butt" stroke-linejoin="round"><use id="use462" width="100%" height="100%" x="41.316" y="27.757" fill="#0000b2" stroke="#0000b2" stroke-linecap="butt" stroke-linejoin="miter" stroke-width=".5" xlink:href="#m4f1829a3a1"/></g></g><g id="text_17" stroke-linecap="butt" stroke-linejoin="round"><g id="g477" stroke-linecap="butt" stroke-linejoin="round" transform="matrix(0.07497,0,0,-0.07497,49.937261,30.380979)"><use id="use467" width="100%" height="100%" x="0" y="0" stroke-linecap="butt" stroke-linejoin="round" xlink:href="#DejaVuSans-20"/><use id="use469" width="100%" height="100%" x="31.787" y="0" stroke-linecap="butt" stroke-linejoin="round" xlink:href="#DejaVuSans-72"/><use id="use471" width="100%" height="100%" x="72.9" y="0" stroke-linecap="butt" stroke-linejoin="round" xlink:href="#DejaVuSans-69"/><use id="use473" width="100%" height="100%" x="100.684" y="0" stroke-linecap="butt" stroke-linejoin="round" xlink:href="#DejaVuSans-6f"/><use id="use475" width="100%" height="100%" x="161.865" y="0" stroke-linecap="butt" stroke-linejoin="round" xlink:href="#DejaVuSans-74"/></g></g></g></g></g><defs id="defs486"><clipPath id="p840df2bde8" stroke-linecap="butt" stroke-linejoin="round"><rect id="rect483" width="178.56" height="125.446" x="30.07" y="5.3" stroke-linecap="butt" stroke-linejoin="round"/></clipPath></defs></svg>